<?xml version="1.0" encoding="utf-8"?>
<!-- Generator: Adobe Illustrator 23.0.0, SVG Export Plug-In . SVG Version: 6.00 Build 0)  -->
<svg version="1.1" xmlns="http://www.w3.org/2000/svg" xmlns:xlink="http://www.w3.org/1999/xlink" x="0px" y="0px"
	 viewBox="0 0 72 72" enable-background="new 0 0 72 72" xml:space="preserve">
<g id="_x5F_GRID" display="none">
	<g display="inline">
		<g>
			
				<rect x="33" y="-33" transform="matrix(6.123234e-17 -1 1 6.123234e-17 33 39)" opacity="0.2" fill="#FF00FF" width="6" height="72"/>
			
				<rect x="34" y="-34" transform="matrix(6.123234e-17 -1 1 6.123234e-17 34 38)" opacity="0.3" fill="#FF00FF" width="4" height="72"/>
		</g>
		<g>
			
				<rect x="33" y="33" transform="matrix(-1.836970e-16 1 -1 -1.836970e-16 105 33)" opacity="0.2" fill="#FF00FF" width="6" height="72"/>
			
				<rect x="34" y="34" transform="matrix(-1.836970e-16 1 -1 -1.836970e-16 106 34)" opacity="0.3" fill="#FF00FF" width="4" height="72"/>
		</g>
		<g>
			<rect x="66" opacity="0.2" fill="#FF00FF" width="6" height="72"/>
			<rect x="68" opacity="0.3" fill="#FF00FF" width="4" height="72"/>
		</g>
		<g>
			<rect transform="matrix(-1 -1.224647e-16 1.224647e-16 -1 6 72)" opacity="0.2" fill="#FF00FF" width="6" height="72"/>
			<rect transform="matrix(-1 -1.224647e-16 1.224647e-16 -1 4 72)" opacity="0.3" fill="#FF00FF" width="4" height="72"/>
		</g>
	</g>
</g>
<g id="ICONS">
	<g>
		<path fill="#FFFFFF" stroke="#979593" stroke-width="2" stroke-miterlimit="10" d="M46.1716,5H14c-1.1046,0-2,0.8954-2,2v58
			c0,1.1046,0.8954,2,2,2h44c1.1046,0,2-0.8954,2-2V18.8284c0-0.5304-0.2107-1.0391-0.5858-1.4142L47.5858,5.5858
			C47.2107,5.2107,46.702,5,46.1716,5z"/>
		<path fill="none" stroke="#979593" stroke-width="2" stroke-miterlimit="10" d="M46,5v12c0,1.1046,0.8954,2,2,2h12"/>
	</g>
	<g>
		<path fill="#FFFFFF" stroke="#69AFE5" stroke-width="2" stroke-miterlimit="10" d="M23.9175,32H12c-1.1046,0-2,0.8954-2,2v31
			c0,1.1046,0.8954,2,2,2h48c1.1046,0,2-0.8954,2-2V55c0-1.1046-0.8954-2-2-2H49.7432c-0.4795,0-0.943-0.1723-1.3061-0.4854
			l-23.3598-20.144C24.7386,32.1295,24.3332,32,23.9175,32z"/>
	</g>
	<path fill="#C8C6C4" d="M25.1667,61h-8.3333C16.3731,61,16,60.5523,16,60l0,0c0-0.5523,0.3731-1,0.8333-1h8.3333
		C25.6269,59,26,59.4477,26,60l0,0C26,60.5523,25.6269,61,25.1667,61z"/>
	<path fill="#C8C6C4" d="M31,54h-4h-6h-4c-0.5523,0-1,0.4477-1,1c0,0.5522,0.4477,1,1,1h4h6h4c0.5523,0,1-0.4478,1-1
		C32,54.4477,31.5523,54,31,54z"/>
</g>
<g id="CENTERED_x5F_MARGINS" display="none">
</g>
<g id="_x5F_FILE_x5F_CENTER" display="none">
</g>
<g id="_x5F_THREE_x5F_HEIGHTS" display="none">
</g>
<g id="FOLDER_x5F_INCIDACTORS" display="none">
</g>
</svg>
